<?xml version="1.0" encoding="UTF-8" standalone="no"?>
<!-- Created with Inkscape (http://www.inkscape.org/) -->

<svg
   width="48"
   height="48"
   viewBox="0 0 12.7 12.7"
   version="1.1"
   id="svg5"
   inkscape:version="1.2.2 (b0a84865, 2022-12-01)"
   sodipodi:docname="nebula.svg"
   inkscape:export-filename="nebula.png"
   inkscape:export-xdpi="1024"
   inkscape:export-ydpi="1024"
   xmlns:inkscape="http://www.inkscape.org/namespaces/inkscape"
   xmlns:sodipodi="http://sodipodi.sourceforge.net/DTD/sodipodi-0.dtd"
   xmlns="http://www.w3.org/2000/svg"
   xmlns:svg="http://www.w3.org/2000/svg">
  <sodipodi:namedview
     id="namedview7"
     pagecolor="#ffffff"
     bordercolor="#000000"
     borderopacity="0.25"
     inkscape:showpageshadow="2"
     inkscape:pageopacity="0.0"
     inkscape:pagecheckerboard="0"
     inkscape:deskcolor="#d1d1d1"
     inkscape:document-units="mm"
     showgrid="false"
     inkscape:zoom="4.7572176"
     inkscape:cx="-33.107588"
     inkscape:cy="20.07476"
     inkscape:window-width="1920"
     inkscape:window-height="1027"
     inkscape:window-x="0"
     inkscape:window-y="25"
     inkscape:window-maximized="1"
     inkscape:current-layer="layer1" />
  <defs
     id="defs2" />
  <g
     inkscape:label="Layer 1"
     inkscape:groupmode="layer"
     id="layer1">
    <ellipse
       style="fill:#00a3cc;fill-opacity:1;stroke:none;stroke-width:0.606999;stroke-linecap:round;stroke-linejoin:bevel;stroke-dasharray:3.64199, 3.64199"
       id="path287"
       cx="8.6500664"
       cy="-1.2080323"
       rx="2.8119042"
       ry="3.3133276"
       transform="rotate(39.362825)" />
    <ellipse
       style="fill:#00a3cc;fill-opacity:1;stroke:none;stroke-width:0.606999;stroke-linecap:round;stroke-linejoin:bevel;stroke-dasharray:3.64199, 3.64199"
       id="ellipse6911"
       cx="9.3212194"
       cy="2.6795239"
       rx="2.8119042"
       ry="3.3133276"
       transform="rotate(39.362825)"
       inkscape:transform-center-x="-3.4608051"
       inkscape:transform-center-y="-1.0421743" />
    <ellipse
       style="fill:#00a3cc;fill-opacity:1;stroke:none;stroke-width:0.606999;stroke-linecap:round;stroke-linejoin:bevel;stroke-dasharray:3.64199, 3.64199"
       id="path287-9"
       cx="7.0703449"
       cy="1.7028675"
       rx="2.8119042"
       ry="3.3133276"
       transform="rotate(39.362825)" />
    <ellipse
       style="fill:#00a3cc;fill-opacity:1;stroke:none;stroke-width:0.606999;stroke-linecap:round;stroke-linejoin:bevel;stroke-dasharray:3.64199, 3.64199"
       id="path287-3"
       cx="10.54421"
       cy="0.48090816"
       rx="2.8119042"
       ry="3.3133276"
       transform="rotate(39.362825)" />
    <ellipse
       style="fill:#00a3cc;fill-opacity:1;stroke:none;stroke-width:0.606999;stroke-linecap:round;stroke-linejoin:bevel;stroke-dasharray:3.64199, 3.64199"
       id="path287-8"
       cx="9.3212194"
       cy="2.6795239"
       rx="2.8119042"
       ry="3.3133276"
       transform="rotate(39.362825)"
       inkscape:transform-center-x="-3.4608051"
       inkscape:transform-center-y="-1.0421743" />
    <g
       id="g6109">
      <path
         style="fill:#177c95;fill-opacity:1;stroke:none;stroke-width:0.607;stroke-linecap:round;stroke-linejoin:bevel;stroke-dasharray:3.642, 3.642;stroke-dashoffset:0"
         d="M 0.19586165,8.4545457 C 1.8253243,5.9852705 3.9511447,4.5018119 5.6283835,4.1223709 6.295568,3.9922293 7.0752502,4.2611436 7.5348556,4.7066566 7.9944609,5.1521695 8.1094099,5.8185243 7.3979687,6.57175 3.5431034,6.1278465 3.8258155,6.453571 0.19586165,8.4545457 Z"
         id="path946-7"
         sodipodi:nodetypes="ccscc" />
      <path
         style="fill:#d48900;fill-opacity:1;stroke:none;stroke-width:0.707974;stroke-linecap:round;stroke-linejoin:bevel;stroke-dasharray:4.24784, 4.24784;stroke-dashoffset:0"
         d="M 0.069,8.5609201 C 1.9624665,5.9957046 4.1336273,3.7219872 6.0826106,3.2777773 7.633172,2.9730648 8.6171785,4.3054468 8.0705215,5.833016 3.7849801,3.880901 4.1578187,5.567279 0.069,8.5609201 Z"
         id="path1560"
         sodipodi:nodetypes="cccc" />
      <path
         style="fill:#f1d0bb;fill-opacity:1;stroke:none;stroke-width:0.607;stroke-linecap:round;stroke-linejoin:bevel;stroke-dasharray:3.642, 3.642;stroke-dashoffset:0"
         d="M 0.56059163,8.1873104 C 2.1900543,5.9961214 4.5661521,4.4570455 6.243391,4.0776045 7.5777595,3.8173213 8.4245672,4.9554326 7.9541299,6.2602715 4.2661163,4.5927886 4.0793111,5.6301632 0.56059163,8.1873104 Z"
         id="path946"
         sodipodi:nodetypes="cccc" />
    </g>
    <g
       id="g6117"
       transform="rotate(180,6.3483095,6.3988835)">
      <path
         style="fill:#177c95;fill-opacity:1;stroke:none;stroke-width:0.607;stroke-linecap:round;stroke-linejoin:bevel;stroke-dasharray:3.642, 3.642;stroke-dashoffset:0"
         d="M 0.19586165,8.4545457 C 1.8253243,5.9852705 3.9511447,4.5018119 5.6283835,4.1223709 6.295568,3.9922293 7.0752502,4.2611436 7.5348556,4.7066566 7.9944609,5.1521695 8.1094099,5.8185243 7.3979687,6.57175 3.5431034,6.1278465 3.8258155,6.453571 0.19586165,8.4545457 Z"
         id="path6111"
         sodipodi:nodetypes="ccscc" />
      <path
         style="fill:#d48900;fill-opacity:1;stroke:none;stroke-width:0.707974;stroke-linecap:round;stroke-linejoin:bevel;stroke-dasharray:4.24784, 4.24784;stroke-dashoffset:0"
         d="M 0.069,8.5609201 C 1.9624665,5.9957046 4.1336273,3.7219872 6.0826106,3.2777773 7.633172,2.9730648 8.6171785,4.3054468 8.0705215,5.833016 3.7849801,3.880901 4.1578187,5.567279 0.069,8.5609201 Z"
         id="path6113"
         sodipodi:nodetypes="cccc" />
      <path
         style="fill:#f1d0bb;fill-opacity:1;stroke:none;stroke-width:0.607;stroke-linecap:round;stroke-linejoin:bevel;stroke-dasharray:3.642, 3.642;stroke-dashoffset:0"
         d="M 0.56059163,8.1873104 C 2.1900543,5.9961214 4.5661521,4.4570455 6.243391,4.0776045 7.5777595,3.8173213 8.4245672,4.9554326 7.9541299,6.2602715 4.2661163,4.5927886 4.0793111,5.6301632 0.56059163,8.1873104 Z"
         id="path6115"
         sodipodi:nodetypes="cccc" />
    </g>
    <ellipse
       style="fill:#e7ba7c;fill-opacity:1;stroke:none;stroke-width:0.793398;stroke-linecap:round;stroke-linejoin:bevel;stroke-dasharray:4.76039, 4.76039;stroke-dashoffset:0"
       id="ellipse1556"
       cx="8.9614859"
       cy="-0.72416741"
       rx="1.2158679"
       ry="1.961356"
       transform="matrix(0.64234301,0.76641729,-0.79008548,0.61299669,0,0)" />
    <ellipse
       style="fill:#f9f2de;fill-opacity:1;stroke:none;stroke-width:0.535065;stroke-linecap:round;stroke-linejoin:bevel;stroke-dasharray:3.21039, 3.21039;stroke-dashoffset:0"
       id="path1554"
       cx="8.9183168"
       cy="-1.3362592"
       rx="0.82333577"
       ry="1.3173373"
       transform="rotate(53.951924)" />
    <path
       sodipodi:type="star"
       style="fill:#caecf5;fill-opacity:1;stroke:none;stroke-width:0.606999;stroke-linecap:round;stroke-linejoin:bevel;stroke-dasharray:3.64199, 3.64199;stroke-dashoffset:0"
       id="path5318"
       inkscape:flatsided="false"
       sodipodi:sides="5"
       sodipodi:cx="8.3982038"
       sodipodi:cy="3.7819726"
       sodipodi:r1="0.64919877"
       sodipodi:r2="0.32459939"
       sodipodi:arg1="0.81569192"
       sodipodi:arg2="1.4440105"
       inkscape:rounded="0"
       inkscape:randomized="0"
       d="M 8.8431418,4.2547192 8.4392483,4.1039666 8.0860886,4.3512205 8.1046528,3.9205098 7.7603681,3.6610406 8.1757349,3.5455994 8.316115,3.1379847 l 0.2381465,0.359364 0.4310444,0.00755 -0.2681842,0.3375404 z"
       inkscape:transform-center-x="0.025366971"
       inkscape:transform-center-y="-0.037370105"
       transform="translate(-0.33649838,-1.1115263)" />
    <path
       sodipodi:type="star"
       style="fill:#caecf5;fill-opacity:1;stroke:none;stroke-width:0.606999;stroke-linecap:round;stroke-linejoin:bevel;stroke-dasharray:3.64199, 3.64199;stroke-dashoffset:0"
       id="path5372"
       inkscape:flatsided="false"
       sodipodi:sides="5"
       sodipodi:cx="8.3982038"
       sodipodi:cy="3.7819726"
       sodipodi:r1="0.64919877"
       sodipodi:r2="0.32459939"
       sodipodi:arg1="0.81569192"
       sodipodi:arg2="1.4440105"
       inkscape:rounded="0"
       inkscape:randomized="0"
       d="M 8.8431418,4.2547192 8.4392483,4.1039666 8.0860886,4.3512205 8.1046528,3.9205098 7.7603681,3.6610406 8.1757349,3.5455994 8.316115,3.1379847 l 0.2381465,0.359364 0.4310444,0.00755 -0.2681842,0.3375404 z"
       inkscape:transform-center-x="0.025366971"
       inkscape:transform-center-y="-0.037370105"
       transform="translate(-5.0238183,3.4432582)" />
    <path
       sodipodi:type="star"
       style="fill:#caecf5;fill-opacity:1;stroke:none;stroke-width:0.606999;stroke-linecap:round;stroke-linejoin:bevel;stroke-dasharray:3.64199, 3.64199;stroke-dashoffset:0"
       id="path5374"
       inkscape:flatsided="false"
       sodipodi:sides="5"
       sodipodi:cx="8.3982038"
       sodipodi:cy="3.7819726"
       sodipodi:r1="0.64919877"
       sodipodi:r2="0.32459939"
       sodipodi:arg1="0.81569192"
       sodipodi:arg2="1.4440105"
       inkscape:rounded="0"
       inkscape:randomized="0"
       d="M 8.8431418,4.2547192 8.4392483,4.1039666 8.0860886,4.3512205 8.1046528,3.9205098 7.7603681,3.6610406 8.1757349,3.5455994 8.316115,3.1379847 l 0.2381465,0.359364 0.4310444,0.00755 -0.2681842,0.3375404 z"
       inkscape:transform-center-x="0.020461305"
       inkscape:transform-center-y="-0.031893365"
       transform="matrix(0.80661277,0,0,0.85344542,2.2314511,1.768542)" />
    <path
       sodipodi:type="star"
       style="fill:#caecf5;fill-opacity:1;stroke:none;stroke-width:0.606999;stroke-linecap:round;stroke-linejoin:bevel;stroke-dasharray:3.64199, 3.64199;stroke-dashoffset:0"
       id="path5376"
       inkscape:flatsided="false"
       sodipodi:sides="5"
       sodipodi:cx="8.3982038"
       sodipodi:cy="3.7819726"
       sodipodi:r1="0.64919877"
       sodipodi:r2="0.32459939"
       sodipodi:arg1="0.81569192"
       sodipodi:arg2="1.4440105"
       inkscape:rounded="0"
       inkscape:randomized="0"
       d="M 8.8431418,4.2547192 8.4392483,4.1039666 8.0860886,4.3512205 8.1046528,3.9205098 7.7603681,3.6610406 8.1757349,3.5455994 8.316115,3.1379847 l 0.2381465,0.359364 0.4310444,0.00755 -0.2681842,0.3375404 z"
       inkscape:transform-center-x="0.018157764"
       inkscape:transform-center-y="-0.030067794"
       transform="matrix(0.7158045,0,0,0.8045939,-1.4230495,6.5232138)" />
    <path
       sodipodi:type="star"
       style="fill:#caecf5;fill-opacity:1;stroke:none;stroke-width:0.606999;stroke-linecap:round;stroke-linejoin:bevel;stroke-dasharray:3.64199, 3.64199;stroke-dashoffset:0"
       id="path5378"
       inkscape:flatsided="false"
       sodipodi:sides="5"
       sodipodi:cx="8.3982038"
       sodipodi:cy="3.7819726"
       sodipodi:r1="0.64919877"
       sodipodi:r2="0.32459939"
       sodipodi:arg1="0.81569192"
       sodipodi:arg2="1.4440105"
       inkscape:rounded="0"
       inkscape:randomized="0"
       d="M 8.8431418,4.2547192 8.4392483,4.1039666 8.0860886,4.3512205 8.1046528,3.9205098 7.7603681,3.6610406 8.1757349,3.5455994 8.316115,3.1379847 l 0.2381465,0.359364 0.4310444,0.00755 -0.2681842,0.3375404 z"
       inkscape:transform-center-x="0.018157824"
       inkscape:transform-center-y="-0.028242159"
       transform="matrix(0.7158045,0,0,0.75574237,3.2853314,5.5725868)" />
    <path
       sodipodi:type="star"
       style="fill:#caecf5;fill-opacity:1;stroke:none;stroke-width:0.606999;stroke-linecap:round;stroke-linejoin:bevel;stroke-dasharray:3.64199, 3.64199;stroke-dashoffset:0"
       id="path6119"
       inkscape:flatsided="false"
       sodipodi:sides="5"
       sodipodi:cx="8.3982038"
       sodipodi:cy="3.7819726"
       sodipodi:r1="0.64919877"
       sodipodi:r2="0.32459939"
       sodipodi:arg1="0.81569192"
       sodipodi:arg2="1.4440105"
       inkscape:rounded="0"
       inkscape:randomized="0"
       d="M 8.8431418,4.2547192 8.4392483,4.1039666 8.0860886,4.3512205 8.1046528,3.9205098 7.7603681,3.6610406 8.1757349,3.5455994 8.316115,3.1379847 l 0.2381465,0.359364 0.4310444,0.00755 -0.2681842,0.3375404 z"
       inkscape:transform-center-x="0.015363623"
       inkscape:transform-center-y="-0.023947558"
       transform="matrix(0.60565621,0,0,0.64082115,-1.940647,1.8057983)" />
  </g>
</svg>
